PathFileType	4	(X/Y/Z)	C:/Users/beibeiliu/ov580/test_trc/User3\sequence.37_training_dense_left.trc
DataRate	CameraRate	NumFrames	NumMarkers	Units	OrigDataRate	OrigDataStartFrame	OrigNumFrames
120	120	7	19	mm	120	240	274
Frame#	Time	ThumbCMC			ThumbMCP			ThumbIP			ThumbTip			IndexMCP			IndexPIP			IndexTip			MiddleMCP			MiddlePIP			MiddleTip			RingMCP			RingPIP			RingTip			PinkyMCP			PinkyPIP			PinkyTip			BackHand1			BackHand2			BackHand3	
		X0	Y0	Z0	X1	Y1	Z1	X2	Y2	Z2	X3	Y3	Z3	X4	Y4	Z4	X5	Y5	Z5	X6	Y6	Z6	X7	Y7	Z7	X8	Y8	Z8	X9	Y9	Z9	X10	Y10	Z10	X11	Y11	Z11	X12	Y12	Z12	X13	Y13	Z13	X14	Y14	Z14	X15	Y15	Z15	X16	Y16	Z16	X17	Y17	Z17	X18	Y18	Z18	
239	1.99167	-120.486	10.8155	29.0974	-103.906	18.0942	1.03476	-88.2543	28.5403	-23.4148	-89.6228	37.2518	-50.9268	-120.45	69.8688	-20.9234	-100.395	58.6856	-43.8533	-103.966	27.2853	-28.8913	-137.593	73.2409	-32.7766	-123.985	58.215	-57.861	-123.609	24.6583	-35.4154	-154.485	61.8796	-38.3596	-137.916	46.3215	-60.5948	-135.904	19.9521	-44.8502	-168.218	46.7705	-36.581	-150.726	33.9985	-59.7505	-145.88	10.9405	-48.5006	-176.265	42.2534	8.7599	-187.432	20.2479	30.7292	-152.035	36.1501	35.6569	
240	2	-121.117	10.7423	20.728	-104.191	14.7098	-3.23859	-90.5473	26.778	-29.6663	-98.2781	34.1741	-54.8292	-126.262	67.1307	-28.6624	-110.513	54.1958	-55.3984	-106.281	27.7451	-42.3221	-144.394	70.5696	-42.4948	-130.953	59.49	-65.2403	-126.466	21.0361	-45.7519	-156.815	60.1634	-42.1386	-145.803	46.576	-66.6227	-140.368	15.4767	-51.3545	-174.738	45.8521	-44.6676	-159.807	33.9711	-64.9581	-151.013	7.49712	-55.542	-180.029	38.1899	7.47095	-183.597	18.1054	27.1576	-151.061	34.8444	31.19	
241	2.00833	-126.82	2.89098	14.0415	-108.172	10.067	-13.7718	-95.3619	23.4638	-41.2136	-100.527	26.6205	-63.0578	-131.285	60.5954	-40.5024	-120.82	54.1339	-70.0028	-116.828	22.1398	-64.5381	-150.228	64.6436	-48.367	-138.913	55.0867	-78.7934	-134.604	16.402	-69.8319	-166.774	55.1753	-49.6428	-159.359	41.7358	-79.6917	-148.776	11.8271	-68.6633	-183.305	38.8417	-48.2803	-169.996	30.0357	-72.5926	-164.671	2.44595	-70.4679	-182.209	33.251	1.64553	-187.149	14.1146	22.7053	-153.478	31.362	17.1248	
242	2.01667	-126.619	-4.26233	1.12045	-115.328	1.57897	-26.5042	-99.5971	8.28879	-52.1212	-99.7464	13.1135	-79.1937	-138.193	47.6856	-61.4142	-136.013	41.049	-92.1951	-133.454	8.90566	-96.2307	-161.809	52.5574	-64.7889	-154.869	45.8586	-97.5039	-153.681	9.89941	-103.111	-181.214	44.3402	-59.6964	-173.338	38.4878	-91.2192	-169.322	4.32831	-95.9188	-193.086	29.6715	-53.2836	-185.689	26.9201	-80.0164	-181.432	-2.71878	-90.0471	-180.587	26.4101	-9.28047	-185.27	11.2581	16.4302	-150.974	25.0346	4.02669	
243	2.025	-131.396	-11.6873	-10.1091	-115.759	-11.7261	-35.5431	-106.096	-9.26153	-63.8211	-102.155	-10.4688	-87.7201	-152.283	26.9934	-78.9627	-153.709	23.5386	-109.786	-152.702	-4.53334	-127.374	-173.449	33.7933	-80.3446	-177.918	31.815	-112.12	-181.021	0.61273	-132.638	-192.82	25.5045	-68.7915	-193.432	27.9159	-99.8519	-195.822	-3.15544	-120.595	-206.262	14.902	-60.9059	-209.458	14.3482	-86.8744	-206.465	-7.18711	-104.243	-185.67	17.8797	-24.3346	-184.949	10.8053	6.15571	-158.146	16.1128	-10.272	
244	2.03333	-137.445	-19.4949	-20.4837	-118.893	-23.0481	-42.0413	-110.649	-26.6793	-69.1021	-104.021	-31.6187	-95.5593	-161.988	3.88957	-89.9265	-165.65	2.32652	-119.43	-165.799	-16.702	-144.168	-185.75	13.0966	-91.7044	-194.867	10.6015	-119.483	-201.263	-6.87575	-149.041	-203.276	7.5354	-79.3102	-212.042	5.981	-110.206	-222.654	-11.7262	-132.43	-219.441	-2.7367	-63.089	-228.756	-2.55754	-85.9165	-232.997	-16.3808	-109.875	-195.749	7.35158	-28.6852	-190.349	7.85733	-3.45238	-157.538	5.44123	-21.6519	
245	2.04167	-140.744	-26.6436	-21.8084	-123.648	-33.7948	-50.5784	-113.727	-41.5445	-71.8295	-109.14	-50.3654	-91.8252	-171.645	-15.1023	-98.2612	-173.045	-19.5502	-125.251	-174.438	-29.8543	-150.865	-193.783	-7.91765	-95.0825	-203.593	-10.6668	-122.785	-212.751	-19.5229	-153.395	-212.799	-10.5265	-85.177	-225.984	-14.0602	-110.231	-237.461	-23.2314	-131.091	-230.876	-18.1053	-63.6693	-237.78	-20.4682	-85.3823	-248.892	-27.5526	-107.286	-200.87	-1.15794	-37.6655	-194.03	1.36673	-8.43348	-163.941	-2.30252	-30.0613	
